<?xml version="1.0" encoding="utf-8"?>
<!-- Generator: Adobe Illustrator 24.3.0, SVG Export Plug-In . SVG Version: 6.00 Build 0)  -->
<svg version="1.1" baseProfile="basic" id="Layer_1"
	 xmlns="http://www.w3.org/2000/svg" xmlns:xlink="http://www.w3.org/1999/xlink" x="0px" y="0px" viewBox="0 0 140 140"
	 xml:space="preserve">
<style type="text/css">
	
		.st0{fill:none;stroke:#3C556E;stroke-width:6;stroke-linecap:round;stroke-linejoin:round;stroke-dasharray:10.5621,19.0118,10.5621,0;}
	.st1{fill:none;stroke:#1F89DE;stroke-width:6;stroke-linecap:round;stroke-linejoin:round;stroke-dasharray:27.8805,17.9232;}
</style>
<path class="st0" d="M70,30.6c-23.5-0.4-47.8,16-63.1,32.9c-3.3,3.7-3.3,9.3,0,13c15,16.5,39.2,33.3,63.1,32.9
	c23.9,0.4,48.2-16.4,63.1-32.9c3.3-3.7,3.3-9.3,0-13C117.8,46.7,93.5,30.2,70,30.6z"/>
<path class="st1" d="M91.7,67.6c1.3,12-7.4,22.8-19.4,24.1s-22.8-7.4-24.1-19.4c-1.3-12,7.4-22.8,19.4-24.1
	C79.6,46.9,90.4,55.6,91.7,67.6C91.7,67.6,91.7,67.6,91.7,67.6z"/>
</svg>
