<?xml version="1.0" encoding="utf-8"?>
<!-- Generator: Adobe Illustrator 24.3.0, SVG Export Plug-In . SVG Version: 6.00 Build 0)  -->
<svg version="1.1" baseProfile="basic" id="Layer_1"
	 xmlns="http://www.w3.org/2000/svg" xmlns:xlink="http://www.w3.org/1999/xlink" x="0px" y="0px" viewBox="0 0 140 140"
	 xml:space="preserve">
<style type="text/css">
	.st0{fill:none;stroke:#1F89DE;stroke-width:6;stroke-linecap:round;stroke-linejoin:round;stroke-miterlimit:23.3333;}
	.st1{fill:none;stroke:#3C556E;stroke-width:6;stroke-linecap:round;stroke-linejoin:round;stroke-miterlimit:23.3333;}
</style>
<g>
	<path class="st0" d="M15.5,64.2c0,5.1,4.1,9.2,9.2,9.2s9.2-4.1,9.2-9.2c0-5.1-4.1-9.2-9.2-9.2S15.5,59.2,15.5,64.2z"/>
	<path class="st0" d="M88.7,35.3c0,5.1,4.1,9.2,9.2,9.2c5.1,0,9.2-4.1,9.2-9.2s-4.1-9.2-9.2-9.2C92.8,26.1,88.7,30.2,88.7,35.3z"/>
	<path class="st0" d="M33.8,60.5l54.9-21.5"/>
</g>
<g>
	<path class="st1" d="M3.8,106.1c0,5.1,4.1,9.2,9.2,9.2s9.2-4.1,9.2-9.2c0-5.1-4.1-9.2-9.2-9.2S3.8,101,3.8,106.1z"/>
	<g>
		<path class="st1" d="M117.8,60.5c0,5.1,4.1,9.2,9.2,9.2c5.1,0,9.2-4.1,9.2-9.2c0-5.1-4.1-9.2-9.2-9.2
			C121.9,51.4,117.8,55.5,117.8,60.5z"/>
		<path class="st1" d="M22.1,102.8L118.9,65"/>
	</g>
</g>
</svg>
