<?xml version="1.0" encoding="utf-8"?>
<!-- Generator: Adobe Illustrator 24.3.0, SVG Export Plug-In . SVG Version: 6.00 Build 0)  -->
<svg version="1.1" baseProfile="basic" id="Layer_1"
	 xmlns="http://www.w3.org/2000/svg" xmlns:xlink="http://www.w3.org/1999/xlink" x="0px" y="0px" viewBox="0 0 140 140"
	 xml:space="preserve">
<style type="text/css">
	.st0{fill:none;stroke:#3C556E;stroke-width:6;stroke-linecap:round;stroke-linejoin:round;stroke-miterlimit:23.3333;}
	.st1{display:none;}
	
		.st2{display:inline;fill:none;stroke:#3C556E;stroke-width:5;stroke-linecap:round;stroke-linejoin:round;stroke-dasharray:6.5681,10.3213;}
	.st3{display:inline;}
	.st4{fill:none;stroke:#3C556E;stroke-width:5;stroke-linecap:round;stroke-linejoin:round;}
	
		.st5{display:none;fill:none;stroke:#1F89DE;stroke-width:6;stroke-linecap:round;stroke-linejoin:round;stroke-miterlimit:23.3333;}
	.st6{fill:none;stroke:#1F89DE;stroke-width:6;stroke-linecap:round;stroke-linejoin:round;stroke-miterlimit:23.3333;}
</style>
<path class="st0" d="M12.8,4.4h114.3c4.7,0,8.5,3.8,8.5,8.5v114.3c0,4.7-3.8,8.5-8.5,8.5H12.8c-4.7,0-8.5-3.8-8.5-8.5V12.8
	C4.4,8.2,8.2,4.4,12.8,4.4z"/>
<g class="st1">
	<circle class="st2" cx="30.6" cy="30.6" r="13.4"/>
	<g class="st3">
		<line class="st4" x1="116.5" y1="58.1" x2="123.1" y2="66.9"/>
		<line class="st4" x1="129" y1="74.8" x2="135.6" y2="83.6"/>
	</g>
	<g class="st3">
		<line class="st4" x1="4.4" y1="123.4" x2="11" y2="114.6"/>
		<line class="st4" x1="16.7" y1="107.1" x2="23.3" y2="98.3"/>
	</g>
</g>
<polyline class="st5" points="30.6,88.4 30.6,109.4 109.4,109.4 109.4,49.8 "/>
<path class="st5" d="M30.6,30.6v57.8l3.8-5.1c4.3-5.8,12.5-6.9,18.2-2.6c0.5,0.4,1,0.8,1.4,1.2l8.9,8.9l28.6-38.2
	c4.2-5.6,12-6.8,17.8-2.9V30.6H30.6z"/>
<path class="st5" d="M30.6,44.1c7.4,0,13.4-6,13.4-13.4"/>
<rect x="30.6" y="30.6" class="st6" width="78.8" height="78.8"/>
</svg>
