<?xml version="1.0" encoding="utf-8"?>
<!-- Generator: Adobe Illustrator 24.3.0, SVG Export Plug-In . SVG Version: 6.00 Build 0)  -->
<svg version="1.1" baseProfile="basic" id="Layer_1"
	 xmlns="http://www.w3.org/2000/svg" xmlns:xlink="http://www.w3.org/1999/xlink" x="0px" y="0px" viewBox="0 0 140 140"
	 xml:space="preserve">
<style type="text/css">
	.st0{fill:none;stroke:#3C556E;stroke-width:6;stroke-linecap:round;stroke-linejoin:round;stroke-miterlimit:23.3333;}
	.st1{fill:none;stroke:#1F89DE;stroke-width:6;stroke-linecap:round;stroke-linejoin:round;stroke-miterlimit:23.3333;}
</style>
<path class="st0" d="M129.4,26.4L76.3,5.6C72.3,4,67.8,4,63.7,5.6L10.6,26.4c-3.9,1.6-6.3,5.5-6.2,9.7v67.8c-0.1,4.2,2.4,8,6.2,9.7
	l53.1,20.8c4.1,1.6,8.6,1.6,12.6,0l53.1-20.8c3.9-1.6,6.3-5.5,6.2-9.7V36.1C135.7,31.9,133.3,28,129.4,26.4z"/>
<path class="st0" d="M70,54.6l63.6-24.9"/>
<path class="st1" d="M11.8,114.1l51.4,20.1c4.7,1.4,7-1.8,6.8-7.2V61c0-4.1-2.3-7.6-7.4-9.3L10.7,31.3c-6.4-1.8-6.3,4-6.3,8.1v65.1
	C4.4,108.6,7.4,112.8,11.8,114.1z"/>
<path class="st0" d="M128.2,112.9"/>
<path class="st0" d="M4.4,105.5"/>
</svg>
