<?xml version="1.0" encoding="utf-8"?>
<!-- Generator: Adobe Illustrator 24.3.0, SVG Export Plug-In . SVG Version: 6.00 Build 0)  -->
<svg version="1.1" baseProfile="basic" id="Layer_1"
	 xmlns="http://www.w3.org/2000/svg" xmlns:xlink="http://www.w3.org/1999/xlink" x="0px" y="0px" viewBox="0 0 140 140"
	 xml:space="preserve">
<style type="text/css">
	.st0{fill:none;stroke:#1F89DE;stroke-width:6;stroke-linecap:round;stroke-linejoin:round;stroke-miterlimit:23.3333;}
	.st1{fill:none;stroke:#3C556E;stroke-width:6;stroke-linecap:round;stroke-linejoin:round;stroke-miterlimit:23.3333;}
</style>
<path class="st0" d="M10.1,76c-3.4,1.3-5.7,4.5-5.7,8.2V117c0,3.6,2.3,6.9,5.7,8.2l26.3,9.8c2,0.7,4.2,0.7,6.1,0l26.3-9.8
	c3.4-1.3,5.7-4.5,5.7-8.2V84.2c0-3.6-2.3-6.9-5.7-8.2l-26.3-9.8c-2-0.7-4.2-0.7-6.1,0L10.1,76z"/>
<path class="st0" d="M5.9,79.3l33.5,12.6l33.5-12.6"/>
<path class="st0" d="M39.4,91.9v43.8"/>
<path class="st1" d="M133.9,22.5L83.1,39.4L32.4,22.5"/>
<path class="st1" d="M83.1,39.4v27.9"/>
<path class="st1" d="M30.6,52.1V27.7c0-3.8,2.4-7.1,6-8.3L80.4,4.8c1.8-0.6,3.7-0.6,5.5,0l43.8,14.6c3.6,1.2,6,4.5,6,8.3v49.6
	c0,3.8-2.4,7.1-6,8.3l-41.4,14"/>
</svg>
