<?xml version="1.0" encoding="utf-8"?>
<!-- Generator: Adobe Illustrator 24.3.0, SVG Export Plug-In . SVG Version: 6.00 Build 0)  -->
<svg version="1.1" baseProfile="basic" id="Layer_1"
	 xmlns="http://www.w3.org/2000/svg" xmlns:xlink="http://www.w3.org/1999/xlink" x="0px" y="0px" viewBox="0 0 140 140"
	 xml:space="preserve">
<style type="text/css">
	.st0{display:none;fill:none;stroke:#1F89DE;stroke-width:6;stroke-linecap:round;stroke-linejoin:round;stroke-miterlimit:10;}
	.st1{fill:none;stroke:#1F89DE;stroke-width:6;stroke-miterlimit:10;}
	.st2{fill:none;stroke:#1F89DE;stroke-width:6;stroke-linecap:round;stroke-linejoin:round;stroke-miterlimit:10;}
	.st3{fill:none;stroke:#3C556E;stroke-width:6;stroke-miterlimit:10;}
	.st4{fill:none;stroke:#3C556E;stroke-width:6;stroke-linecap:round;stroke-linejoin:round;stroke-miterlimit:10;}
</style>
<polygon class="st0" points="78.4,129.8 13,129.8 13,71.3 20.1,71.3 20.1,64.3 78.4,64.3 "/>
<g>
	<rect x="5.9" y="57.2" class="st1" width="14.1" height="14.1"/>
	<rect x="5.9" y="122.8" class="st1" width="14.1" height="14.1"/>
	<rect x="71.4" y="57.2" class="st1" width="14.1" height="14.1"/>
	<rect x="71.4" y="122.8" class="st1" width="14.1" height="14.1"/>
	<line class="st2" x1="70.4" y1="64.3" x2="21" y2="64.3"/>
	<line class="st2" x1="70.4" y1="129.8" x2="21" y2="129.8"/>
	<line class="st2" x1="13" y1="121.8" x2="13" y2="72.3"/>
	<line class="st2" x1="78.4" y1="121.8" x2="78.4" y2="72.3"/>
</g>
<g>
	<rect x="53.5" y="4.5" class="st3" width="14.1" height="14.1"/>
	<rect x="118.9" y="4.5" class="st3" width="14.1" height="14.1"/>
	<rect x="118.9" y="98" class="st3" width="14.1" height="14.1"/>
	<line class="st4" x1="118" y1="11.6" x2="68.5" y2="11.6"/>
	<line class="st4" x1="118" y1="105.1" x2="90.5" y2="105.1"/>
	<line class="st4" x1="60.5" y1="52" x2="60.5" y2="19.6"/>
	<line class="st4" x1="126" y1="97" x2="126" y2="19.6"/>
</g>
</svg>
