<?xml version="1.0" encoding="UTF-8"?><svg id="Layer_1" xmlns="http://www.w3.org/2000/svg" viewBox="0 0 92 92"><defs><style>.cls-1{stroke:#065da3;}.cls-1,.cls-2{fill:none;stroke-linecap:round;stroke-linejoin:round;stroke-width:1.5px;}.cls-2{stroke:#1a212b;}</style></defs><g id="cf-icon-workstream-people"><g><polygon id="Stroke-899" class="cls-1" points="16.09 17.69 19.83 25.17 29.17 25.17 21.7 30.78 23.57 40.12 16.09 34.54 8.61 40.12 10.48 30.78 3 25.17 12.35 25.17 16.09 17.69"/><polygon id="Stroke-900" class="cls-1" points="46 5.14 50.81 14.75 62.83 14.75 53.21 21.96 55.61 33.98 46 26.81 36.39 33.98 38.79 21.96 29.17 14.75 41.19 14.75 46 5.14"/><polygon id="Stroke-901" class="cls-1" points="75.91 17.69 79.65 25.17 89 25.17 81.52 30.78 83.39 40.12 75.91 34.54 68.43 40.12 70.3 30.78 62.83 25.17 72.17 25.17 75.91 17.69"/></g><g><g><circle class="cls-2" cx="20.44" cy="58.82" r="9.35"/><path class="cls-2" d="m29.69,71.66c-2.48-2.18-5.71-3.5-9.25-3.5-7.49,0-13.66,5.88-14.02,13.36v5.34h24.3"/></g><g><circle class="cls-2" cx="46" cy="51.31" r="11.68"/><path class="cls-2" d="m28.47,86.86v-6.68c.45-9.35,8.17-16.7,17.53-16.7s17.08,7.35,17.53,16.7v6.68H28.47Z"/></g><g><circle class="cls-2" cx="71.56" cy="58.82" r="9.35"/><path class="cls-2" d="m62.31,71.66c2.48-2.18,5.71-3.5,9.25-3.5,7.49,0,13.66,5.88,14.02,13.36v5.34h-24.3"/></g></g></g></svg>