<?xml version="1.0" encoding="UTF-8"?><svg id="Layer_1" xmlns="http://www.w3.org/2000/svg" viewBox="0 0 92 92"><defs><style>.cls-1{stroke-miterlimit:10;}.cls-1,.cls-2{fill:none;stroke:#000;stroke-linecap:round;stroke-width:1.5px;}.cls-3{fill:#065da3;}.cls-2{stroke-linejoin:round;}</style></defs><g><line class="cls-1" x1="42" y1="28" x2="68" y2="28"/><line class="cls-1" x1="42" y1="44" x2="68" y2="44"/><g><path class="cls-3" d="m82.9,65.02c-.74-.13-1.46-.3-2.19-.48-.28-.07-.56-.3-.68-.57-.25-.54-.48-1.1-.69-1.66-.1-.25-.07-.59.07-.82.28-.47.58-.92.87-1.38l.38-.59c.28-.44.26-.62-.1-.98-1.3-1.3-2.6-2.6-3.9-3.9-.37-.36-.55-.38-.99-.1l-.22.14c-.56.36-1.13.72-1.69,1.09-.3.2-.6.22-.94.07-.23-.1-.46-.2-.7-.29-.3-.12-.6-.25-.9-.38-.26-.13-.5-.4-.57-.68-.14-.59-.33-1.36-.47-2.16-.08-.44-.26-.61-.5-.7h-6.1c-.24.09-.41.26-.49.7-.14.79-.33,1.57-.48,2.16-.07.28-.3.55-.57.68-.54.25-1.1.47-1.66.69-.26.09-.6.07-.83-.07-.44-.27-.88-.55-1.31-.83l-.65-.42c-.44-.28-.62-.26-.99.1-1.3,1.3-2.6,2.6-3.89,3.9-.36.36-.38.55-.1.99l.4.62c.28.43.56.87.83,1.31.15.24.18.59.08.86-.22.6-.45,1.14-.69,1.66-.12.26-.4.5-.69.57-.54.13-1.08.24-1.62.36l-.61.13c-.48.1-.61.27-.61.75v5.55c0,.48.14.65.61.75l.57.12c.55.12,1.11.24,1.67.37.28.07.56.31.68.57.14.3.26.6.39.9.09.23.19.47.29.7.15.34.13.65-.07.94-.36.55-.72,1.1-1.07,1.65l-.16.26c-.28.44-.26.63.1.99,1.3,1.3,2.6,2.6,3.9,3.9.36.36.55.38.98.1l.23-.15c.56-.36,1.13-.71,1.68-1.08.17-.11.34-.17.52-.17.14,0,.28.03.42.09.24.11.48.21.71.3.3.13.6.25.89.38.27.12.5.41.57.69.15.58.27,1.18.4,1.77l.09.43c.12.53.26.65.79.65h5.48c.53,0,.68-.13.79-.64l.1-.48c.13-.59.25-1.18.4-1.76.06-.27.29-.54.56-.66.26-.12.53-.23.8-.34.27-.11.53-.21.79-.33.35-.16.66-.13.98.08.52.35,1.05.69,1.58,1.03l.3.18c.45.29.62.27,1.01-.11,1.29-1.29,2.58-2.58,3.87-3.88.37-.36.39-.55.11-.98l-.42-.65c-.28-.44-.56-.87-.83-1.31-.14-.23-.17-.57-.07-.83.21-.56.44-1.12.69-1.66.12-.27.4-.51.68-.58.72-.17,1.45-.34,2.19-.48.42-.07.58-.25.67-.49v-6.1c-.11-.27-.31-.42-.67-.49Zm-1.12,6.22c-.31.06-.63.13-.95.2-.33.07-.67.15-1.01.21-.34.07-.53.24-.67.62-.32.88-.67,1.73-1.04,2.52-.18.38-.17.62.03.91.3.44.59.89.87,1.33l.57.9-3.58,3.58-.89-.56c-.43-.28-.87-.56-1.31-.86-.31-.21-.57-.22-.96-.04-.78.37-1.62.72-2.49,1.03-.39.14-.57.33-.64.7-.06.36-.14.72-.22,1.09-.07.29-.13.58-.19.87-.09.44-.38.63-.84.68-1.22-.01-2.44-.01-3.67,0-.45,0-.74-.24-.83-.68-.06-.3-.12-.59-.18-.88-.08-.36-.16-.72-.23-1.09-.07-.36-.24-.55-.64-.69-.85-.3-1.69-.65-2.49-1.03-.39-.18-.63-.18-.94.03-.44.3-.9.59-1.34.87l-.9.58-3.57-3.57.56-.88c.28-.44.56-.89.86-1.33.23-.33.24-.6.03-1.02-.38-.78-.72-1.6-1-2.41-.14-.43-.34-.61-.74-.68-.36-.06-.72-.14-1.08-.23-.27-.06-.55-.12-.83-.17-.32-.06-.69-.26-.69-.86,0-1.21,0-2.43,0-3.64,0-.32.12-.73.7-.85.32-.06.64-.13.95-.2.34-.07.68-.15,1.01-.21.35-.07.53-.24.67-.63.32-.88.67-1.72,1.05-2.51.17-.38.16-.62-.04-.91-.3-.45-.59-.91-.87-1.35l-.57-.89,3.58-3.57.86.54c.44.28.89.57,1.34.88.32.21.57.22.96.04.79-.38,1.62-.72,2.5-1.03.39-.14.56-.33.63-.7.07-.35.14-.69.22-1.03.06-.3.13-.6.19-.9.11-.59.52-.69.84-.71,1.22.01,2.45.01,3.67,0,.48.01.74.24.83.68.06.29.12.57.18.86.08.37.16.74.23,1.11.07.36.25.54.65.69.85.3,1.68.65,2.49,1.03.38.18.63.17.93-.03.44-.3.89-.59,1.34-.87l.91-.58,3.56,3.57-.56.88c-.27.44-.56.89-.86,1.33-.23.33-.24.59-.03,1.02.36.74.7,1.56,1.01,2.43.14.41.33.59.71.66.35.06.69.14,1.04.21.3.07.59.13.89.19.32.06.7.26.69.86-.01,1.21-.01,2.42.01,3.63,0,.47-.24.77-.71.86Z"/><path class="cls-3" d="m66.64,60.74h-.02c-2.08,0-4.04.81-5.51,2.28-1.49,1.48-2.3,3.45-2.3,5.54s.81,4.06,2.3,5.55c1.47,1.47,3.43,2.28,5.51,2.28h.02c2.1,0,4.07-.83,5.55-2.32,1.48-1.48,2.28-3.44,2.27-5.52-.02-4.3-3.53-7.8-7.82-7.81Zm-.01,14.58c-1.8,0-3.49-.71-4.78-2-1.28-1.29-1.98-2.99-1.97-4.77.02-3.71,3.05-6.74,6.75-6.74h.01c1.79,0,3.49.71,4.77,2,1.29,1.29,1.99,2.98,1.98,4.77-.02,3.71-3.05,6.74-6.76,6.74Z"/></g></g><polyline class="cls-2" points="17.19 60.57 23.1 63.96 31.34 54.68"/><polyline class="cls-2" points="17.19 45.57 23.1 48.96 31.34 39.68"/><polyline class="cls-2" points="17.19 30.57 23.1 33.96 31.34 24.68"/><path class="cls-1" d="m46,82H13.09c-2.56,0-4.63-2.07-4.63-4.63V10.77c0-2.56,2.07-4.63,4.63-4.63h48.99c.31,0,.61.03.91.09.89.18,1.72.62,2.37,1.27l11.64,11.64c.87.87,1.36,2.05,1.36,3.27v26.92"/><path class="cls-1" d="m77.35,20.06h-10.12c-1.98,0-3.58-1.6-3.58-3.58V6.62"/></svg>