<?xml version="1.0" encoding="UTF-8"?><svg id="Layer_1" xmlns="http://www.w3.org/2000/svg" viewBox="0 0 92 92"><defs><style>.cls-1{stroke:#065da3;}.cls-1,.cls-2{fill:none;stroke-linecap:round;stroke-linejoin:round;stroke-width:1.5px;}.cls-2{stroke:#000;}</style></defs><g id="Feedback_Loop"><path class="cls-2" d="m33.89,35.41h-12.2c-3.37,0-6.1,2.73-6.1,6.1v16.77"/><path class="cls-2" d="m58.29,35.41h12.2c3.37,0,6.1,2.73,6.1,6.1v16.77"/><line class="cls-2" x1="46.09" y1="58.28" x2="46.09" y2="47.61"/><g><circle class="cls-2" cx="15.43" cy="69.6" r="6.53"/><path class="cls-2" d="m5.57,90.14v-4.58c0-5.15,4.44-9.37,9.86-9.37s9.86,4.22,9.86,9.37v4.58H5.57Z"/></g><g><circle class="cls-2" cx="46.08" cy="69.6" r="6.53"/><path class="cls-2" d="m36.22,90.14v-4.58c0-5.15,4.44-9.37,9.86-9.37s9.86,4.22,9.86,9.37v4.58h-19.73Z"/></g><g><circle class="cls-2" cx="76.57" cy="69.6" r="6.53"/><path class="cls-2" d="m66.71,90.14v-4.58c0-5.15,4.44-9.37,9.86-9.37s9.86,4.22,9.86,9.37v4.58h-19.73Z"/></g><g><path class="cls-1" d="m39.99,11.01c0-4.87,6.1-9.15,6.1-9.15,0,0,6.1,4.28,6.1,9.15"/><rect class="cls-1" x="39.99" y="11.01" width="12.2" height="24.4"/><polygon class="cls-1" points="39.99 21.68 33.89 27.78 33.89 41.51 39.99 35.29 39.99 21.68"/><polygon class="cls-1" points="52.19 21.68 58.29 27.78 58.29 41.51 52.19 35.29 52.19 21.68"/><path class="cls-1" d="m51.82,35.44c.24.46.37.96.37,1.48,0,2.45-6.1,10.69-6.1,10.69,0,0-6.1-8.24-6.1-10.69,0-.52.12-1.02.37-1.48h11.47Z"/><rect class="cls-1" x="39.99" y="29.31" width="12.2" height="6.1"/></g></g></svg>