<?xml version="1.0" encoding="UTF-8"?><svg id="Layer_1" xmlns="http://www.w3.org/2000/svg" viewBox="0 0 92 92"><defs><style>.cls-1{stroke:#1a212b;}.cls-1,.cls-2,.cls-3{fill:none;stroke-miterlimit:10;stroke-width:1.5px;}.cls-1,.cls-3{stroke-linecap:round;}.cls-2,.cls-3{stroke:#065da3;}</style></defs><circle class="cls-2" cx="58.51" cy="66.95" r="4.6"/><line class="cls-3" x1="62.48" y1="63.6" x2="70.3" y2="57.03"/><path class="cls-1" d="m33,68.14H12.45c-3.89,0-6.65-3.8-5.44-7.5l14.43-44.2c.77-2.35,2.96-3.95,5.44-3.95h53.69c3.93,0,6.69,3.87,5.41,7.58l-9.88,28.76"/><line class="cls-1" x1="20" y1="22.72" x2="85.08" y2="22.72"/><line class="cls-1" x1="5.7" y1="32.94" x2="43.17" y2="32.94"/><line class="cls-1" x1="5.7" y1="47.7" x2="26.14" y2="47.7"/><line class="cls-1" x1="10.24" y1="71.55" x2="26.14" y2="71.55"/><line class="cls-1" x1="29.54" y1="79.5" x2="47.71" y2="79.5"/><path class="cls-1" d="m63.61,31.81l4.35,4.35c.42.42,1.1.42,1.52,0l7.76-7.76"/><line class="cls-3" x1="59.07" y1="42.03" x2="59.07" y2="45.43"/><line class="cls-3" x1="39.7" y1="50.47" x2="42.1" y2="52.88"/><line class="cls-3" x1="34.2" y1="68.14" x2="37.6" y2="68.14"/><line class="cls-3" x1="77.31" y1="50.47" x2="74.9" y2="52.88"/><ellipse class="cls-1" cx="66.45" cy="17.04" rx="1.14" ry=".57" transform="translate(36.27 78.65) rotate(-78.29)"/><ellipse class="cls-1" cx="70.99" cy="17.04" rx="1.14" ry=".57" transform="translate(39.9 83.1) rotate(-78.29)"/><ellipse class="cls-1" cx="75.54" cy="17.04" rx="1.14" ry=".57" transform="translate(43.52 87.55) rotate(-78.29)"/><path class="cls-2" d="m82.14,74.88c.87-2.54,1.34-5.27,1.34-8.1,0-13.8-11.19-24.98-24.98-24.98s-24.98,11.19-24.98,24.98c0,2.87.48,5.62,1.37,8.18l47.25-.08Z"/></svg>