<?xml version="1.0" encoding="UTF-8"?><svg id="Layer_1" xmlns="http://www.w3.org/2000/svg" viewBox="0 0 92 92"><defs><style>.cls-1{stroke-miterlimit:10;}.cls-1,.cls-2,.cls-3{fill:none;stroke-width:1.5px;}.cls-1,.cls-3{stroke:#1a212b;}.cls-2{stroke:#065da3;}.cls-2,.cls-3{stroke-linecap:round;stroke-linejoin:round;}</style></defs><g id="Setup"><circle class="cls-1" cx="15.91" cy="15.85" r="3.92"/><circle class="cls-2" cx="62.91" cy="61.99" r="14.83"/><circle class="cls-1" cx="27.68" cy="15.85" r="3.92"/><circle class="cls-1" cx="39.46" cy="15.85" r="3.92"/><path class="cls-1" d="m9.93,8h72.14c1.03,0,1.87.84,1.87,1.87v13.83H8.06v-13.83c0-1.03.84-1.87,1.87-1.87Z"/><path class="cls-3" d="m83.94,74.48V23.7H8.06v57.32c0,1.58,1.28,2.86,2.86,2.86h63.86"/><g><line class="cls-3" x1="19.19" y1="35.96" x2="24.42" y2="35.96"/><line class="cls-3" x1="19.19" y1="45.23" x2="43" y2="45.23"/><line class="cls-3" x1="19.19" y1="54.42" x2="30.86" y2="54.42"/><line class="cls-3" x1="30.96" y1="35.96" x2="60.89" y2="35.96"/><line class="cls-3" x1="39.02" y1="54.42" x2="36.3" y2="54.42"/><line class="cls-3" x1="39.01" y1="63.58" x2="27.34" y2="63.58"/><line class="cls-3" x1="19.18" y1="63.58" x2="21.9" y2="63.58"/><line class="cls-3" x1="31.16" y1="72.74" x2="19.49" y2="72.74"/></g><line class="cls-2" x1="83.77" y1="84" x2="73.12" y2="73.35"/></g></svg>