<?xml version="1.0" encoding="UTF-8"?><svg id="Layer_1" xmlns="http://www.w3.org/2000/svg" viewBox="0 0 92 92"><defs><style>.cls-1,.cls-2,.cls-3{stroke-miterlimit:10;}.cls-1,.cls-3,.cls-4{fill:none;stroke-linecap:round;stroke-width:1.5px;}.cls-1,.cls-4{stroke:#010101;}.cls-2{stroke:#fff;}.cls-2,.cls-5{fill:#065da3;}.cls-6{fill:#d2e9f6;}.cls-3{stroke:#065da3;}.cls-4{stroke-linejoin:round;}.cls-7{fill:#efefef;}</style></defs><g><path class="cls-7" d="m20.6,83.59c.12.13.23.26.35.38-.12-.13-.23-.26-.35-.38Z"/><path class="cls-7" d="m48.67,83.97c.17-.12.35-.25.52-.37-.17.12-.35.25-.52.37Z"/><path class="cls-6" d="m44.84,48.14c.12-.14.25-.27.37-.41-.12.14-.25.27-.37.41Z"/><line class="cls-3" x1="29.11" y1="36.42" x2="26.36" y2="36.42"/><line class="cls-3" x1="58.11" y1="36.42" x2="55.36" y2="36.42"/><line class="cls-3" x1="52.71" y1="25.45" x2="50.76" y2="27.39"/><line class="cls-3" x1="31.76" y1="25.45" x2="33.71" y2="27.39"/><line class="cls-3" x1="42.74" y1="21.05" x2="42.74" y2="23.8"/><path class="cls-5" d="m32.17,38.54c.12.67.33,1.33.61,1.97-.26-.63-.47-1.29-.61-1.97Z"/><path class="cls-2" d="m48.64,44.8c.42-.39.87-.75,1.27-1.14-.39.42-.81.8-1.27,1.14Z"/><path class="cls-3" d="m36,33s2-5,7.37-3.35"/><path class="cls-5" d="m42.41,26c-5.77,0-10.45,4.68-10.45,10.44,0,.45.03.9.09,1.34.02.15.04.31.07.46.01.11.03.21.05.3.14.68.35,1.34.61,1.97.14.33.3.66.48.97.23.41.49.81.78,1.21.02.03.04.06.07.09.21.26.43.53.65.79.02,0,.03.03.04.04.12.13.25.27.38.4.51.52,1.05.99,1.54,1.51,1.07,1.14,1.26,2.01.46,3.36-1.07,1.8-1.07,3.74-.95,5.69.04.56.43,1.3.9,1.59.94.59,1.6,1.41,2.32,2.2,1.87,2.05,4.34,1.94,6.12-.15.61-.72,1.33-1.35,2.06-1.96.77-.65,1.13-1.42,1.02-2.42-.07-.59-.12-1.19-.21-1.78-.2-1.16-.23-2.34-.92-3.42-.55-.88-.45-1.95.25-2.82.31-.38.65-.75,1.01-1.1,0,0,.02,0,.02-.02.13-.1.26-.2.38-.33.15-.13.29-.26.43-.39.14-.12.28-.27.41-.41.2-.21.39-.43.56-.65.19-.24.37-.48.53-.73.08-.12.16-.25.23-.38.11-.15.2-.31.27-.47.8-1.46,1.24-3.12,1.24-4.89,0-5.76-4.67-10.44-10.44-10.44Zm.81,32.23c-.85.29-1.65.02-2.32-.57-.36-.32-.25-.58.15-.69.53-.15,1.08-.24,1.39-.31.4.02.6-.03.72.05.31.19.59.44.88.67-.27.29-.49.74-.82.85Zm2.38-3.02c-1.03.01-2.06,0-3.1,0s-2.15.01-3.22,0c-.32,0-.69.02-.93-.14-.26-.17-.52-.52-.55-.82-.02-.19.34-.5.6-.62.27-.13.62-.12.94-.12,2.06-.01,4.13-.01,6.2,0,1,0,1.65.37,1.57.9-.14.86-.87.79-1.51.8Zm1.2-3.63c-.4.23-.87.42-1.32.44-1.04.07-2.07.02-3.11.02h0c-.99.01-1.99.01-2.98,0-.28,0-.61.04-.82-.09-.31-.2-.8-.58-.75-.79.07-.34.47-.66.81-.88.2-.13.54-.08.82-.08,1.87,0,3.74-.04,5.61.02.56.02,1.15.23,1.68.46.49.21.52.64.06.9Zm2.13-8.8c-.5.52-1.01,1.02-1.53,1.52-.59.57-1.04,1.21-1.31,1.93-.17.41-.27.84-.31,1.31-.07.79-.46,1.15-1.24,1.14h-2.04c-.75.01-1.52.08-2.27-.02-.37-.05-.96-.38-1-.65-.11-.67-.32-1.28-.62-1.83-.71-1.33-1.85-2.37-2.84-3.5-1.6-1.83-2.42-3.92-2.41-6.34.01-4.16,3.95-9.68,10.43-8.64,5.05.82,7.52,4.87,7.69,9.07.09,2.33-.92,4.34-2.55,6.01Z"/><path class="cls-4" d="m71.18,68.49c.47.35.85.45,1.15.38,1.41-.35,1.17-4.63,1.16-5.86,0-1.48,9.01-.52,3.18-6.36s-2.75-12.43-2.75-12.43c0,0,4.57-15.73-9.4-26.16-15.89-11.87-29.97-6.57-36.54-2.73-2.59,1.52-4.83,3.6-6.52,6.08-14.91,21.88,3.68,47.07,3.68,47.07l-6.65,16.01h31.41l2.16-6.9"/><path class="cls-1" d="m65.25,40.51s1.4-.99,3.33,0,5.52,3,5.52,3"/></g><path class="cls-1" d="m43.37,71.94s7.24,7.21,20.68,8.08c7.45.48,4.45-5.52,5.45-7.52s2.66-.25,2.83-3.63"/></svg>