<?xml version="1.0" encoding="utf-8"?>
<!-- Generator: Adobe Illustrator 26.1.0, SVG Export Plug-In . SVG Version: 6.00 Build 0)  -->
<svg version="1.1" id="Layer_1" xmlns="http://www.w3.org/2000/svg" xmlns:xlink="http://www.w3.org/1999/xlink" x="0px" y="0px"
	 viewBox="0 0 92 92" style="enable-background:new 0 0 92 92;" xml:space="preserve">
<style type="text/css">
	.st0{fill:none;stroke:#000000;stroke-width:1.5;stroke-miterlimit:10;}
	.st1{fill:none;stroke:#000000;stroke-width:1.5;stroke-linecap:round;stroke-miterlimit:10;}
	.st2{fill:none;stroke:#065DA3;stroke-width:1.5;stroke-linecap:round;stroke-miterlimit:10;}
</style>
<circle class="st0" cx="56.2" cy="43.6" r="6.1"/>
<path class="st1" d="M40,14.2c4.8-2.6,10.4-4,16.2-4c19,0,34.4,15.4,34.4,34.4S75.3,79.1,56.2,79.1c-5.9,0-11.4-1.5-16.2-4"/>
<line class="st1" x1="56.2" y1="10.2" x2="56.2" y2="17.3"/>
<line class="st1" x1="56.2" y1="72" x2="56.2" y2="79.1"/>
<line class="st1" x1="90.7" y1="44.6" x2="83.6" y2="44.6"/>
<line class="st1" x1="75.6" y1="64" x2="80.6" y2="69"/>
<line class="st1" x1="75.6" y1="25.3" x2="80.6" y2="20.3"/>
<line class="st1" x1="61.4" y1="39.5" x2="71.4" y2="29.4"/>
<line class="st1" x1="49.1" y1="51.7" x2="52.2" y2="48.7"/>
<line class="st2" x1="42.1" y1="21.3" x2="21.8" y2="21.3"/>
<line class="st2" x1="42.1" y1="65.9" x2="21.8" y2="65.9"/>
<line class="st2" x1="39" y1="31.5" x2="7.6" y2="31.5"/>
<line class="st2" x1="39" y1="55.8" x2="7.6" y2="55.8"/>
<line class="st2" x1="37" y1="43.6" x2="1.1" y2="43.6"/>
</svg>
